# xmcd CD database file
#
# Track frame offsets:
#	150
#	20279
#	38178
#	57303
#	79374
#	99523
#	119787
#	148031
#	168840
#
# Disc length: 2518 seconds
#
# Revision: 0
# Processed by: cddbd v1.5.1PL0 Copyright (c) Steve Scherf et al.
# Submitted via: CDex 1.51
#
DISCID=7809d409
DTITLE=Orquesta De La Luz - Sin Fronteras
DYEAR=1991
DGENRE=Salsa
TTITLE0=Sin Fronteras
TTITLE1=Amame
TTITLE2=I Am A Piano
TTITLE3=Cuanto Vale Tu Amor
TTITLE4=Ban Con San
TTITLE5=El Me Ama, Yo Le Amo
TTITLE6=Descarga De La Luz
TTITLE7=Make The World Stand Still
TTITLE8=Flores Y Tambores
EXTD=YEAR: 1991
EXTT0=
EXTT1=
EXTT2=
EXTT3=
EXTT4=
EXTT5=
EXTT6=
EXTT7=
EXTT8=
PLAYORDER=
